# xmcd
#
# Track frame offsets: 
#        150
#        19376
#        38728
#
# Disc length: 796 seconds
#
# Revision: 2
# Processed by: cddbd v1.5.2PL0 Copyright (c) Steve Scherf et al.
# Submitted via: ExactAudioCopy v0.99pb4
#
DISCID=1d031a03
DTITLE=Nickleback - Rockstar
DYEAR=2007
DGENRE=Alt. Rock
TTITLE0=Rockstar (Radio Edit)
TTITLE1=Never Again (Live In Atlanta)
TTITLE2=Photograph (Live In Atlanta)
EXTD=
EXTT0=
EXTT1=
EXTT2=
PLAYORDER=
